<?xml version="1.0" encoding="UTF-8" standalone="no"?>
<!-- Generator: Adobe Illustrator 16.0.3, SVG Export Plug-In . SVG Version: 6.00 Build 0)  -->

<svg
   xmlns:dc="http://purl.org/dc/elements/1.1/"
   xmlns:cc="http://creativecommons.org/ns#"
   xmlns:rdf="http://www.w3.org/1999/02/22-rdf-syntax-ns#"
   xmlns:svg="http://www.w3.org/2000/svg"
   xmlns="http://www.w3.org/2000/svg"
   xmlns:sodipodi="http://sodipodi.sourceforge.net/DTD/sodipodi-0.dtd"
   xmlns:inkscape="http://www.inkscape.org/namespaces/inkscape"
   version="1.1"
   id="Layer_1"
   x="0px"
   y="0px"
   width="260.70218"
   height="90"
   viewBox="0 0 260.70218 89.999996"
   enable-background="new 0 0 640.839 267.333"
   xml:space="preserve"
   inkscape:version="0.91 r13725"
   sodipodi:docname="owlEmblemWithText.svg"
   inkscape:export-filename="/Users/shawn/Documents/Work/Projects/OWL/Branding/Skins/OWL/OWL Logo - 2017/owlEmblemWithText.png"
   inkscape:export-xdpi="90"
   inkscape:export-ydpi="90"><metadata
     id="metadata47"><rdf:RDF><cc:Work
         rdf:about=""><dc:format>image/svg+xml</dc:format><dc:type
           rdf:resource="http://purl.org/dc/dcmitype/StillImage" /><dc:title></dc:title></cc:Work></rdf:RDF></metadata><defs
     id="defs45" /><sodipodi:namedview
     pagecolor="#ffffff"
     bordercolor="#666666"
     borderopacity="1"
     objecttolerance="10"
     gridtolerance="10"
     guidetolerance="10"
     inkscape:pageopacity="0"
     inkscape:pageshadow="2"
     inkscape:window-width="1659"
     inkscape:window-height="1131"
     id="namedview43"
     showgrid="false"
     fit-margin-top="0"
     fit-margin-left="0"
     fit-margin-right="0"
     fit-margin-bottom="0"
     inkscape:zoom="1"
     inkscape:cx="144.13783"
     inkscape:cy="-110.99754"
     inkscape:window-x="0"
     inkscape:window-y="22"
     inkscape:window-maximized="0"
     inkscape:current-layer="Layer_1" /><g
     id="g3"
     transform="matrix(0.44572351,0,0,0.44572351,-15.699296,-13.706028)"><path
       stroke-miterlimit="10"
       d="m 617.502,115.094 -0.012,-70.3 c -18.191,-6.43 -46.743,-10.59 -78.944,-10.59 -31.583,0 -59.698,4.138 -77.882,10.59 l -0.008,71.32 c 0,10.512 -0.476,29.12 9.082,51.401 11.869,27.665 34.844,48.464 67.633,61.504 l 1.704,0.696 1.687,-0.691 c 32.813,-13.045 55.789,-33.845 67.658,-61.51 9.562,-22.278 9.082,-42.339 9.082,-52.42 z"
       id="path5"
       inkscape:connector-curvature="0"
       style="fill:#ffffff;stroke:#4f2683;stroke-width:5.22450018;stroke-miterlimit:10" /><path
       stroke-miterlimit="10"
       d="m 598.164,121.551 -0.008,-52.966 c -13.706,-4.844 -35.218,-7.979 -59.479,-7.979 -23.795,0 -44.978,3.119 -58.677,7.979 l -0.005,53.735 c 0,7.919 -0.36,21.94 6.841,38.726 8.943,20.843 26.252,36.514 50.957,46.339 l 1.283,0.526 1.271,-0.521 c 24.723,-9.83 42.033,-25.501 50.974,-46.344 7.205,-16.785 6.843,-31.9 6.843,-39.495 z"
       id="path7"
       inkscape:connector-curvature="0"
       style="fill:#ffffff;stroke:#4f2683;stroke-width:0.87080002;stroke-miterlimit:10" /><path
       d="m 598.16,99.907 c 0.077,1.082 -1.682,3.278 -2.182,4.125 -2.199,3.721 -4.711,7.282 -7.534,10.557 -9.685,11.237 -22.854,16.497 -36.13,22.261 -8.038,3.492 -17.913,7.168 -24.81,12.665 -14.144,11.267 -20.858,27.331 -13.789,44.78 0,0 10.646,7.231 25.363,13.498 10e-4,0 68.91,-14.268 59.082,-107.886 z"
       id="path9"
       inkscape:connector-curvature="0"
       style="fill:#4f2683" /><path
       d="m 506.955,84.377 c 8.611,4.087 16.479,9.936 22.691,17.149 2.502,2.905 9.436,16.737 9.436,21.04 0,-4.303 6.934,-18.135 9.434,-21.04 6.213,-7.213 14.081,-13.063 22.692,-17.149 7.216,-3.425 23.382,-3.439 27.386,-11.543 l -0.001,-6.25 c -13.808,-4.852 -35.477,-7.993 -59.917,-7.993 -23.969,0 -45.307,3.124 -59.108,7.993 l 0,6.247 c 4.003,8.107 20.171,8.121 27.387,11.546 z"
       id="path11"
       inkscape:connector-curvature="0"
       style="fill:#4f2683" /><g
       id="g13"><circle
         cx="515.23901"
         cy="99.906998"
         r="19.028"
         id="circle15"
         style="fill:#4f2683" /><circle
         stroke-miterlimit="10"
         cx="515.23798"
         cy="99.906998"
         r="14.668"
         id="circle17"
         style="fill:none;stroke:#ffffff;stroke-width:1.74150002;stroke-miterlimit:10" /></g><circle
       cx="519.04901"
       cy="90.966003"
       r="4.6220002"
       id="circle19"
       style="fill:#ffffff" /><circle
       cx="563.17102"
       cy="99.906998"
       r="19.028"
       id="circle21"
       style="fill:#4f2683" /><circle
       stroke-miterlimit="10"
       cx="563.16998"
       cy="99.906998"
       r="14.667"
       id="circle23"
       style="fill:none;stroke:#ffffff;stroke-width:1.74150002;stroke-miterlimit:10" /><circle
       cx="566.98199"
       cy="90.966003"
       r="4.6209998"
       id="circle25"
       style="fill:#ffffff" /><polyline
       points="502.537,67.147 479.568,47.508 479.568,70.007  "
       id="polyline27"
       style="fill:#4f2683" /><polyline
       points="575.625,67.147 598.594,47.508 598.594,70.007  "
       id="polyline29"
       style="fill:#4f2683" /></g><g
     id="g31"
     transform="matrix(0.44572351,0,0,0.44572351,-15.699296,-13.706028)"><path
       stroke-miterlimit="10"
       d="m 38.172,131.838 c 0,-70.951 27.268,-98.138 66.183,-98.138 38.648,0 65.917,27.187 65.917,98.138 0,70.954 -27.269,97.881 -65.917,97.881 -38.916,0 -66.183,-26.927 -66.183,-97.881 z m 86.036,0 c 0,-41.173 -4.764,-58.779 -19.854,-58.779 -15.354,0 -20.121,17.606 -20.121,58.779 0,41.173 4.767,59.814 20.121,59.814 15.09,0 19.854,-18.641 19.854,-59.814 z"
       id="path33"
       inkscape:connector-curvature="0"
       style="fill:#ffffff;stroke:#4f2683;stroke-width:5.89989996;stroke-miterlimit:10" /><path
       stroke-miterlimit="10"
       d="m 158.891,36.031 43.943,0 7.414,55.932 c 2.646,19.679 5.03,35.733 7.147,62.403 l 1.061,0 c 2.91,-25.376 5.292,-42.465 8.203,-62.403 l 7.944,-55.932 36.268,0 7.94,55.412 c 3.177,21.233 6.089,38.324 8.472,62.924 l 1.06,0 c 1.853,-24.6 4.235,-42.208 6.883,-61.627 l 7.675,-56.708 38.654,0 -34.153,192.134 -38.912,0 -17.738,-113.161 -1.06,0 -17.738,113.161 -38.911,0 -34.152,-192.135 z"
       id="path35"
       inkscape:connector-curvature="0"
       style="fill:#ffffff;stroke:#4f2683;stroke-width:5.89989996;stroke-miterlimit:10" /><path
       stroke-miterlimit="10"
       d="m 346.588,36.031 45.531,0 0,155.103 51.886,0 0,36.513 -97.417,0 0,-191.616 z"
       id="path37"
       inkscape:connector-curvature="0"
       style="fill:#ffffff;stroke:#4f2683;stroke-width:5.89989996;stroke-miterlimit:10" /></g></svg>