<?xml version="1.0" encoding="UTF-8" standalone="no"?>
<!-- Generator: Adobe Illustrator 16.0.3, SVG Export Plug-In . SVG Version: 6.00 Build 0)  -->

<svg
   xmlns:dc="http://purl.org/dc/elements/1.1/"
   xmlns:cc="http://creativecommons.org/ns#"
   xmlns:rdf="http://www.w3.org/1999/02/22-rdf-syntax-ns#"
   xmlns:svg="http://www.w3.org/2000/svg"
   xmlns="http://www.w3.org/2000/svg"
   xmlns:sodipodi="http://sodipodi.sourceforge.net/DTD/sodipodi-0.dtd"
   xmlns:inkscape="http://www.inkscape.org/namespaces/inkscape"
   version="1.1"
   id="Layer_1"
   x="0px"
   y="0px"
   width="450"
   height="450"
   viewBox="0 0 450 450"
   enable-background="new 0 0 500 500"
   xml:space="preserve"
   inkscape:version="0.91 r13725"
   sodipodi:docname="owlEmblem.svg"><metadata
     id="metadata33"><rdf:RDF><cc:Work
         rdf:about=""><dc:format>image/svg+xml</dc:format><dc:type
           rdf:resource="http://purl.org/dc/dcmitype/StillImage" /><dc:title></dc:title></cc:Work></rdf:RDF></metadata><defs
     id="defs31" /><sodipodi:namedview
     pagecolor="#ffffff"
     bordercolor="#666666"
     borderopacity="1"
     objecttolerance="10"
     gridtolerance="10"
     guidetolerance="10"
     inkscape:pageopacity="0"
     inkscape:pageshadow="2"
     inkscape:window-width="1645"
     inkscape:window-height="1140"
     id="namedview29"
     showgrid="false"
     fit-margin-top="0"
     fit-margin-left="0"
     fit-margin-right="0"
     fit-margin-bottom="0"
     inkscape:zoom="0.6675088"
     inkscape:cx="530.76394"
     inkscape:cy="7.998298"
     inkscape:window-x="0"
     inkscape:window-y="22"
     inkscape:window-maximized="0"
     inkscape:current-layer="Layer_1" /><g
     id="g4161"
     transform="translate(-31.236576,-18.877663)"><path
       id="path3"
       d="M 428.544,206.59 428.522,52.129 C 388.552,38.003 325.817,28.861 255.066,28.861 c -69.393,0 -131.167,9.092 -171.12,23.268 L 83.928,208.83 c 0,23.098 -1.044,63.982 19.957,112.938 26.078,60.784 76.556,106.484 148.599,135.136 l 3.744,1.529 3.705,-1.517 c 72.098,-28.664 122.58,-74.364 148.657,-135.148 21.012,-48.951 19.954,-93.028 19.954,-115.178 z"
       stroke-miterlimit="10"
       inkscape:connector-curvature="0"
       style="fill:#ffffff;stroke:#4f2683;stroke-width:11.47920036;stroke-miterlimit:10" /><path
       id="path5"
       d="M 386.057,220.776 386.04,104.4 C 355.926,93.757 308.66,86.87 255.352,86.87 c -52.281,0 -98.823,6.853 -128.922,17.53 l -0.011,118.065 c 0,17.399 -0.792,48.207 15.032,85.088 19.647,45.795 57.68,80.229 111.959,101.814 l 2.819,1.154 2.792,-1.143 c 54.32,-21.598 92.355,-56.031 111.999,-101.826 15.833,-36.877 15.037,-70.087 15.037,-86.776 z"
       stroke-miterlimit="10"
       inkscape:connector-curvature="0"
       style="fill:#ffffff;stroke:#4f2683;stroke-width:1.91320002;stroke-miterlimit:10" /><path
       id="path7"
       d="m 386.05,173.22 c 0.168,2.377 -3.697,7.204 -4.794,9.064 -4.832,8.176 -10.351,16 -16.554,23.196 -21.28,24.689 -50.216,36.248 -79.384,48.912 -17.662,7.672 -39.359,15.75 -54.512,27.826 -31.075,24.755 -45.828,60.05 -30.297,98.389 0,0 23.389,15.887 55.729,29.658 -10e-4,0.001 151.406,-31.348 129.812,-237.045 z"
       inkscape:connector-curvature="0"
       style="fill:#4f2683" /><path
       id="path9"
       d="m 185.654,139.101 c 18.921,8.979 36.208,21.83 49.858,37.679 5.496,6.384 20.731,36.774 20.731,46.229 0,-9.456 15.234,-39.845 20.729,-46.229 13.649,-15.849 30.938,-28.7 49.858,-37.679 15.854,-7.525 51.374,-7.558 60.17,-25.362 l -10e-4,-13.731 C 356.66,89.347 309.05,82.445 255.35,82.445 c -52.662,0 -99.544,6.865 -129.87,17.562 l 0,13.725 c 8.797,17.811 44.32,17.841 60.174,25.369 z"
       inkscape:connector-curvature="0"
       style="fill:#4f2683" /><g
       id="g11"><path
         id="path13"
         d="m 245.664,173.22 c 0,23.091 -18.72,41.809 -41.807,41.809 -23.087,0 -41.808,-18.718 -41.808,-41.809 0,-23.088 18.721,-41.808 41.808,-41.808 23.086,0 41.807,18.72 41.807,41.808 z"
         inkscape:connector-curvature="0"
         style="fill:#4f2683" /><path
         id="path15"
         d="m 236.084,173.22 c 0,17.799 -14.429,32.226 -32.228,32.226 -17.801,0 -32.232,-14.427 -32.232,-32.226 0,-17.798 14.431,-32.229 32.232,-32.229 17.799,10e-4 32.228,14.431 32.228,32.229 z"
         stroke-miterlimit="10"
         inkscape:connector-curvature="0"
         style="fill:none;stroke:#ffffff;stroke-width:3.82640004;stroke-miterlimit:10" /></g><path
       id="path17"
       d="m 222.382,153.576 c 0,5.61 -4.545,10.156 -10.153,10.156 -5.611,0 -10.154,-4.546 -10.154,-10.156 0,-5.606 4.542,-10.154 10.154,-10.154 5.608,0 10.153,4.548 10.153,10.154 z"
       inkscape:connector-curvature="0"
       style="fill:#ffffff" /><circle
       id="circle19"
       r="41.808998"
       cy="173.22"
       cx="309.17099"
       style="fill:#4f2683" /><path
       id="path21"
       d="m 341.396,173.22 c 0,17.799 -14.425,32.226 -32.225,32.226 -17.798,0 -32.229,-14.427 -32.229,-32.226 0,-17.798 14.432,-32.229 32.229,-32.229 17.801,10e-4 32.225,14.431 32.225,32.229 z"
       stroke-miterlimit="10"
       inkscape:connector-curvature="0"
       style="fill:none;stroke:#ffffff;stroke-width:3.82640004;stroke-miterlimit:10" /><path
       id="path23"
       d="m 327.699,153.576 c 0,5.61 -4.546,10.156 -10.153,10.156 -5.612,0 -10.155,-4.546 -10.155,-10.156 0,-5.606 4.543,-10.154 10.155,-10.154 5.607,0 10.153,4.548 10.153,10.154 z"
       inkscape:connector-curvature="0"
       style="fill:#ffffff" /><polyline
       id="polyline25"
       points="175.947,101.242 125.481,58.091 125.481,107.526 "
       style="fill:#4f2683" /><polyline
       id="polyline27"
       points="336.535,101.242 387,58.091 387,107.526 "
       style="fill:#4f2683" /></g></svg>